<?xml version="1.0" encoding="UTF-8" standalone="no"?>
<!DOCTYPE svg PUBLIC "-//W3C//DTD SVG 1.1//EN"
 "http://www.w3.org/Graphics/SVG/1.1/DTD/svg11.dtd">
<!-- Generated by graphviz version 14.1.2 (0)
 -->
<!-- Title: CompatibilityRepair Pages: 1 -->
<svg width="822pt" height="1795pt"
 viewBox="0.00 0.00 822.00 1795.00" xmlns="http://www.w3.org/2000/svg" xmlns:xlink="http://www.w3.org/1999/xlink">
<g id="graph0" class="graph" transform="scale(1 1) rotate(0) translate(25.2 1769.69)">
<title>CompatibilityRepair</title>
<polygon fill="#f7f8fc" stroke="none" points="-25.2,25.2 -25.2,-1769.69 796.45,-1769.69 796.45,25.2 -25.2,25.2"/>
<text xml:space="preserve" text-anchor="middle" x="385.62" y="-1717.69" font-family="DejaVu Sans" font-size="24.00" fill="#172033">Legacy Wine Application Compatibility Repair on Ubuntu 26.04</text>
<g id="clust1" class="cluster">
<title>cluster_host</title>
<path fill="#eef3ff" stroke="#b9c9f5" d="M158.12,-1423.57C158.12,-1423.57 396.12,-1423.57 396.12,-1423.57 402.12,-1423.57 408.12,-1429.57 408.12,-1435.57 408.12,-1435.57 408.12,-1625.35 408.12,-1625.35 408.12,-1631.35 402.12,-1637.35 396.12,-1637.35 396.12,-1637.35 158.12,-1637.35 158.12,-1637.35 152.12,-1637.35 146.12,-1631.35 146.12,-1625.35 146.12,-1625.35 146.12,-1435.57 146.12,-1435.57 146.12,-1429.57 152.12,-1423.57 158.12,-1423.57"/>
<text xml:space="preserve" text-anchor="middle" x="277.12" y="-1621.95" font-family="DejaVu Sans Bold" font-size="12.00" fill="#31539a">LAYER 1 · HOST PACKAGE STATE</text>
</g>
<g id="clust2" class="cluster">
<title>cluster_security</title>
<path fill="#f5f0ff" stroke="#d0bdf4" d="M158.12,-1090.9C158.12,-1090.9 396.12,-1090.9 396.12,-1090.9 402.12,-1090.9 408.12,-1096.9 408.12,-1102.9 408.12,-1102.9 408.12,-1403.57 408.12,-1403.57 408.12,-1409.57 402.12,-1415.57 396.12,-1415.57 396.12,-1415.57 158.12,-1415.57 158.12,-1415.57 152.12,-1415.57 146.12,-1409.57 146.12,-1403.57 146.12,-1403.57 146.12,-1102.9 146.12,-1102.9 146.12,-1096.9 152.12,-1090.9 158.12,-1090.9"/>
<text xml:space="preserve" text-anchor="middle" x="277.12" y="-1400.17" font-family="DejaVu Sans Bold" font-size="12.00" fill="#6942a4">LAYER 2 · SANDBOX SECURITY</text>
</g>
<g id="clust3" class="cluster">
<title>cluster_bridge</title>
<path fill="#ecfaf7" stroke="#9fd9d0" d="M158.12,-869.12C158.12,-869.12 396.12,-869.12 396.12,-869.12 402.12,-869.12 408.12,-875.12 408.12,-881.12 408.12,-881.12 408.12,-1070.9 408.12,-1070.9 408.12,-1076.9 402.12,-1082.9 396.12,-1082.9 396.12,-1082.9 158.12,-1082.9 158.12,-1082.9 152.12,-1082.9 146.12,-1076.9 146.12,-1070.9 146.12,-1070.9 146.12,-881.12 146.12,-881.12 146.12,-875.12 152.12,-869.12 158.12,-869.12"/>
<text xml:space="preserve" text-anchor="middle" x="277.12" y="-1067.5" font-family="DejaVu Sans Bold" font-size="12.00" fill="#147469">LAYER 3 · ACE / WINE BRIDGE</text>
</g>
<g id="clust4" class="cluster">
<title>cluster_abi</title>
<path fill="#fff8ea" stroke="#f3c887" d="M133.12,-647.34C133.12,-647.34 421.12,-647.34 421.12,-647.34 427.12,-647.34 433.12,-653.34 433.12,-659.34 433.12,-659.34 433.12,-849.12 433.12,-849.12 433.12,-855.12 427.12,-861.12 421.12,-861.12 421.12,-861.12 133.12,-861.12 133.12,-861.12 127.12,-861.12 121.12,-855.12 121.12,-849.12 121.12,-849.12 121.12,-659.34 121.12,-659.34 121.12,-653.34 127.12,-647.34 133.12,-647.34"/>
<text xml:space="preserve" text-anchor="middle" x="277.12" y="-845.72" font-family="DejaVu Sans Bold" font-size="12.00" fill="#9a5b08">LAYER 4 · ABI AND DYNAMIC LOADER</text>
</g>
<g id="clust5" class="cluster">
<title>cluster_render</title>
<path fill="#fff2ef" stroke="#f1b5a7" d="M146.12,-314.67C146.12,-314.67 638.12,-314.67 638.12,-314.67 644.12,-314.67 650.12,-320.67 650.12,-326.67 650.12,-326.67 650.12,-627.34 650.12,-627.34 650.12,-633.34 644.12,-639.34 638.12,-639.34 638.12,-639.34 146.12,-639.34 146.12,-639.34 140.12,-639.34 134.12,-633.34 134.12,-627.34 134.12,-627.34 134.12,-326.67 134.12,-326.67 134.12,-320.67 140.12,-314.67 146.12,-314.67"/>
<text xml:space="preserve" text-anchor="middle" x="392.12" y="-623.94" font-family="DejaVu Sans Bold" font-size="12.00" fill="#a74531">LAYER 5 · APPLICATION RENDERING POLICY</text>
</g>
<g id="clust6" class="cluster">
<title>cluster_validation</title>
<path fill="#eef8ff" stroke="#a7d4f2" d="M273.12,-92.89C273.12,-92.89 511.12,-92.89 511.12,-92.89 517.12,-92.89 523.12,-98.89 523.12,-104.89 523.12,-104.89 523.12,-294.67 523.12,-294.67 523.12,-300.67 517.12,-306.67 511.12,-306.67 511.12,-306.67 273.12,-306.67 273.12,-306.67 267.12,-306.67 261.12,-300.67 261.12,-294.67 261.12,-294.67 261.12,-104.89 261.12,-104.89 261.12,-98.89 267.12,-92.89 273.12,-92.89"/>
<text xml:space="preserve" text-anchor="middle" x="392.12" y="-291.27" font-family="DejaVu Sans Bold" font-size="12.00" fill="#236a9b">LAYER 6 · USER&#45;VISIBLE VALIDATION</text>
</g>
<!-- start -->
<g id="node1" class="node">
<title>start</title>
<path fill="#ffe9ec" stroke="#e4546b" stroke-width="1.8" d="M378.52,-1707.99C378.52,-1707.99 175.73,-1707.99 175.73,-1707.99 169.73,-1707.99 163.73,-1701.99 163.73,-1695.99 163.73,-1695.99 163.73,-1675.35 163.73,-1675.35 163.73,-1669.35 169.73,-1663.35 175.73,-1663.35 175.73,-1663.35 378.52,-1663.35 378.52,-1663.35 384.52,-1663.35 390.52,-1669.35 390.52,-1675.35 390.52,-1675.35 390.52,-1695.99 390.52,-1695.99 390.52,-1701.99 384.52,-1707.99 378.52,-1707.99"/>
<text xml:space="preserve" text-anchor="middle" x="277.12" y="-1688.72" font-family="DejaVu Sans" font-size="11.00" fill="#8d2032">INCOMPATIBLE</text>
<text xml:space="preserve" text-anchor="middle" x="277.12" y="-1675.22" font-family="DejaVu Sans" font-size="11.00" fill="#8d2032">Click → silent exit</text>
</g>
<!-- pkg_probe -->
<g id="node2" class="node">
<title>pkg_probe</title>
<path fill="#ffffff" stroke="#cbd3e1" stroke-width="1.25" d="M378.52,-1597.1C378.52,-1597.1 175.73,-1597.1 175.73,-1597.1 169.73,-1597.1 163.73,-1591.1 163.73,-1585.1 163.73,-1585.1 163.73,-1564.46 163.73,-1564.46 163.73,-1558.46 169.73,-1552.46 175.73,-1552.46 175.73,-1552.46 378.52,-1552.46 378.52,-1552.46 384.52,-1552.46 390.52,-1558.46 390.52,-1564.46 390.52,-1564.46 390.52,-1585.1 390.52,-1585.1 390.52,-1591.1 384.52,-1597.1 378.52,-1597.1"/>
<text xml:space="preserve" text-anchor="middle" x="277.12" y="-1577.83" font-family="DejaVu Sans" font-size="11.00" fill="#172033">Inspect dpkg state</text>
<text xml:space="preserve" text-anchor="middle" x="277.12" y="-1564.33" font-family="DejaVu Sans" font-size="11.00" fill="#172033">unpacked / half&#45;configured</text>
</g>
<!-- start&#45;&gt;pkg_probe -->
<g id="edge1" class="edge">
<title>start&#45;&gt;pkg_probe</title>
<path fill="none" stroke="#6b7893" stroke-width="1.35" d="M277.12,-1662.69C277.12,-1662.69 277.12,-1606.59 277.12,-1606.59"/>
<polygon fill="#6b7893" stroke="#6b7893" stroke-width="1.35" points="279.65,-1606.59 277.13,-1599.39 274.61,-1606.59 279.65,-1606.59"/>
</g>
<!-- pkg_fix -->
<g id="node3" class="node">
<title>pkg_fix</title>
<path fill="#dce7ff" stroke="#7193e0" stroke-width="1.25" d="M378.52,-1486.21C378.52,-1486.21 175.73,-1486.21 175.73,-1486.21 169.73,-1486.21 163.73,-1480.21 163.73,-1474.21 163.73,-1474.21 163.73,-1453.57 163.73,-1453.57 163.73,-1447.57 169.73,-1441.57 175.73,-1441.57 175.73,-1441.57 378.52,-1441.57 378.52,-1441.57 384.52,-1441.57 390.52,-1447.57 390.52,-1453.57 390.52,-1453.57 390.52,-1474.21 390.52,-1474.21 390.52,-1480.21 384.52,-1486.21 378.52,-1486.21"/>
<text xml:space="preserve" text-anchor="middle" x="277.12" y="-1466.94" font-family="DejaVu Sans" font-size="11.00" fill="#172033">Complete package configuration</text>
<text xml:space="preserve" text-anchor="middle" x="277.12" y="-1453.44" font-family="DejaVu Sans" font-size="11.00" fill="#172033">Evernote + Deepin Wine bridge</text>
</g>
<!-- pkg_probe&#45;&gt;pkg_fix -->
<g id="edge2" class="edge">
<title>pkg_probe&#45;&gt;pkg_fix</title>
<path fill="none" stroke="#6b7893" stroke-width="1.35" d="M277.12,-1552.07C277.12,-1552.07 277.12,-1495.81 277.12,-1495.81"/>
<polygon fill="#6b7893" stroke="#6b7893" stroke-width="1.35" points="279.65,-1495.81 277.13,-1488.61 274.61,-1495.81 279.65,-1495.81"/>
<text xml:space="preserve" text-anchor="middle" x="264" y="-1526.64" font-family="DejaVu Sans" font-size="9.00" fill="#53617a">repair</text>
</g>
<!-- ns_test -->
<g id="node4" class="node">
<title>ns_test</title>
<path fill="#ffffff" stroke="#cbd3e1" stroke-width="1.25" d="M378.52,-1375.32C378.52,-1375.32 175.73,-1375.32 175.73,-1375.32 169.73,-1375.32 163.73,-1369.32 163.73,-1363.32 163.73,-1363.32 163.73,-1342.68 163.73,-1342.68 163.73,-1336.68 169.73,-1330.68 175.73,-1330.68 175.73,-1330.68 378.52,-1330.68 378.52,-1330.68 384.52,-1330.68 390.52,-1336.68 390.52,-1342.68 390.52,-1342.68 390.52,-1363.32 390.52,-1363.32 390.52,-1369.32 384.52,-1375.32 378.52,-1375.32"/>
<text xml:space="preserve" text-anchor="middle" x="277.12" y="-1356.05" font-family="DejaVu Sans" font-size="11.00" fill="#172033">Isolate the ACE boundary</text>
<text xml:space="preserve" text-anchor="middle" x="277.12" y="-1342.55" font-family="DejaVu Sans" font-size="11.00" fill="#172033">bookworm&#45;run true</text>
</g>
<!-- pkg_fix&#45;&gt;ns_test -->
<g id="edge3" class="edge">
<title>pkg_fix&#45;&gt;ns_test</title>
<path fill="none" stroke="#6b7893" stroke-width="1.35" d="M277.12,-1441.18C277.12,-1441.18 277.12,-1384.92 277.12,-1384.92"/>
<polygon fill="#6b7893" stroke="#6b7893" stroke-width="1.35" points="279.65,-1384.92 277.13,-1377.72 274.61,-1384.92 279.65,-1384.92"/>
</g>
<!-- aa_log -->
<g id="node5" class="node">
<title>aa_log</title>
<path fill="#ffffff" stroke="#cbd3e1" stroke-width="1.25" d="M378.52,-1264.43C378.52,-1264.43 175.73,-1264.43 175.73,-1264.43 169.73,-1264.43 163.73,-1258.43 163.73,-1252.43 163.73,-1252.43 163.73,-1231.79 163.73,-1231.79 163.73,-1225.79 169.73,-1219.79 175.73,-1219.79 175.73,-1219.79 378.52,-1219.79 378.52,-1219.79 384.52,-1219.79 390.52,-1225.79 390.52,-1231.79 390.52,-1231.79 390.52,-1252.43 390.52,-1252.43 390.52,-1258.43 384.52,-1264.43 378.52,-1264.43"/>
<text xml:space="preserve" text-anchor="middle" x="277.12" y="-1245.16" font-family="DejaVu Sans" font-size="11.00" fill="#172033">Read kernel audit evidence</text>
<text xml:space="preserve" text-anchor="middle" x="277.12" y="-1231.66" font-family="DejaVu Sans" font-size="11.00" fill="#172033">unpriv_bwrap capability denials</text>
</g>
<!-- ns_test&#45;&gt;aa_log -->
<g id="edge4" class="edge">
<title>ns_test&#45;&gt;aa_log</title>
<path fill="none" stroke="#6b7893" stroke-width="1.35" d="M277.12,-1330.29C277.12,-1330.29 277.12,-1274.03 277.12,-1274.03"/>
<polygon fill="#6b7893" stroke="#6b7893" stroke-width="1.35" points="279.65,-1274.03 277.13,-1266.83 274.61,-1274.03 279.65,-1274.03"/>
<text xml:space="preserve" text-anchor="middle" x="234.38" y="-1304.86" font-family="DejaVu Sans" font-size="9.00" fill="#53617a">namespace denied</text>
</g>
<!-- aa_fix -->
<g id="node6" class="node">
<title>aa_fix</title>
<path fill="#e9ddff" stroke="#9a72d6" stroke-width="1.25" d="M378.52,-1153.54C378.52,-1153.54 175.73,-1153.54 175.73,-1153.54 169.73,-1153.54 163.73,-1147.54 163.73,-1141.54 163.73,-1141.54 163.73,-1120.9 163.73,-1120.9 163.73,-1114.9 169.73,-1108.9 175.73,-1108.9 175.73,-1108.9 378.52,-1108.9 378.52,-1108.9 384.52,-1108.9 390.52,-1114.9 390.52,-1120.9 390.52,-1120.9 390.52,-1141.54 390.52,-1141.54 390.52,-1147.54 384.52,-1153.54 378.52,-1153.54"/>
<text xml:space="preserve" text-anchor="middle" x="277.12" y="-1134.27" font-family="DejaVu Sans" font-size="11.00" fill="#172033">Allow only observed capabilities</text>
<text xml:space="preserve" text-anchor="middle" x="277.12" y="-1120.77" font-family="DejaVu Sans" font-size="11.00" fill="#172033">Reload and retest AppArmor</text>
</g>
<!-- aa_log&#45;&gt;aa_fix -->
<g id="edge5" class="edge">
<title>aa_log&#45;&gt;aa_fix</title>
<path fill="none" stroke="#6b7893" stroke-width="1.35" d="M277.12,-1219.4C277.12,-1219.4 277.12,-1163.14 277.12,-1163.14"/>
<polygon fill="#6b7893" stroke="#6b7893" stroke-width="1.35" points="279.65,-1163.14 277.13,-1155.94 274.61,-1163.14 279.65,-1163.14"/>
<text xml:space="preserve" text-anchor="middle" x="246" y="-1193.97" font-family="DejaVu Sans" font-size="9.00" fill="#53617a">least privilege</text>
</g>
<!-- wine_probe -->
<g id="node7" class="node">
<title>wine_probe</title>
<path fill="#ffffff" stroke="#cbd3e1" stroke-width="1.25" d="M378.52,-1042.65C378.52,-1042.65 175.73,-1042.65 175.73,-1042.65 169.73,-1042.65 163.73,-1036.65 163.73,-1030.65 163.73,-1030.65 163.73,-1010.01 163.73,-1010.01 163.73,-1004.01 169.73,-998.01 175.73,-998.01 175.73,-998.01 378.52,-998.01 378.52,-998.01 384.52,-998.01 390.52,-1004.01 390.52,-1010.01 390.52,-1010.01 390.52,-1030.65 390.52,-1030.65 390.52,-1036.65 384.52,-1042.65 378.52,-1042.65"/>
<text xml:space="preserve" text-anchor="middle" x="277.12" y="-1023.38" font-family="DejaVu Sans" font-size="11.00" fill="#172033">Verify Wine inside ACE</text>
<text xml:space="preserve" text-anchor="middle" x="277.12" y="-1009.88" font-family="DejaVu Sans" font-size="11.00" fill="#172033">wine &#45;&#45;version</text>
</g>
<!-- aa_fix&#45;&gt;wine_probe -->
<g id="edge6" class="edge">
<title>aa_fix&#45;&gt;wine_probe</title>
<path fill="none" stroke="#6b7893" stroke-width="1.35" d="M277.12,-1108.51C277.12,-1108.51 277.12,-1052.25 277.12,-1052.25"/>
<polygon fill="#6b7893" stroke="#6b7893" stroke-width="1.35" points="279.65,-1052.25 277.13,-1045.05 274.61,-1052.25 279.65,-1052.25"/>
</g>
<!-- arch_fix -->
<g id="node8" class="node">
<title>arch_fix</title>
<path fill="#d7f4ee" stroke="#53ad9e" stroke-width="1.25" d="M378.52,-931.76C378.52,-931.76 175.73,-931.76 175.73,-931.76 169.73,-931.76 163.73,-925.76 163.73,-919.76 163.73,-919.76 163.73,-899.12 163.73,-899.12 163.73,-893.12 169.73,-887.12 175.73,-887.12 175.73,-887.12 378.52,-887.12 378.52,-887.12 384.52,-887.12 390.52,-893.12 390.52,-899.12 390.52,-899.12 390.52,-919.76 390.52,-919.76 390.52,-925.76 384.52,-931.76 378.52,-931.76"/>
<text xml:space="preserve" text-anchor="middle" x="277.12" y="-912.49" font-family="DejaVu Sans" font-size="11.00" fill="#172033">Install matching i386 runtime</text>
<text xml:space="preserve" text-anchor="middle" x="277.12" y="-898.99" font-family="DejaVu Sans" font-size="11.00" fill="#172033">Mesa · GLX · FreeType · Fontconfig</text>
</g>
<!-- wine_probe&#45;&gt;arch_fix -->
<g id="edge7" class="edge">
<title>wine_probe&#45;&gt;arch_fix</title>
<path fill="none" stroke="#6b7893" stroke-width="1.35" d="M277.12,-997.62C277.12,-997.62 277.12,-941.36 277.12,-941.36"/>
<polygon fill="#6b7893" stroke="#6b7893" stroke-width="1.35" points="279.65,-941.36 277.13,-934.16 274.61,-941.36 279.65,-941.36"/>
<text xml:space="preserve" text-anchor="middle" x="248.25" y="-972.19" font-family="DejaVu Sans" font-size="9.00" fill="#53617a">bridge ready</text>
</g>
<!-- gl_debug -->
<g id="node9" class="node">
<title>gl_debug</title>
<path fill="#ffffff" stroke="#cbd3e1" stroke-width="1.25" d="M378.52,-820.87C378.52,-820.87 175.73,-820.87 175.73,-820.87 169.73,-820.87 163.73,-814.87 163.73,-808.87 163.73,-808.87 163.73,-788.23 163.73,-788.23 163.73,-782.23 169.73,-776.23 175.73,-776.23 175.73,-776.23 378.52,-776.23 378.52,-776.23 384.52,-776.23 390.52,-782.23 390.52,-788.23 390.52,-788.23 390.52,-808.87 390.52,-808.87 390.52,-814.87 384.52,-820.87 378.52,-820.87"/>
<text xml:space="preserve" text-anchor="middle" x="277.12" y="-801.6" font-family="DejaVu Sans" font-size="11.00" fill="#172033">Trace the real loader path</text>
<text xml:space="preserve" text-anchor="middle" x="277.12" y="-788.1" font-family="DejaVu Sans" font-size="11.00" fill="#172033">LIBGL_DEBUG · ldd · WINEDEBUG</text>
</g>
<!-- arch_fix&#45;&gt;gl_debug -->
<g id="edge8" class="edge">
<title>arch_fix&#45;&gt;gl_debug</title>
<path fill="none" stroke="#6b7893" stroke-width="1.35" d="M277.12,-886.73C277.12,-886.73 277.12,-830.47 277.12,-830.47"/>
<polygon fill="#6b7893" stroke="#6b7893" stroke-width="1.35" points="279.65,-830.47 277.13,-823.27 274.61,-830.47 279.65,-830.47"/>
</g>
<!-- abi_fix -->
<g id="node10" class="node">
<title>abi_fix</title>
<path fill="#fff0cf" stroke="#e1a94e" stroke-width="1.25" d="M402.96,-709.98C402.96,-709.98 151.29,-709.98 151.29,-709.98 145.29,-709.98 139.29,-703.98 139.29,-697.98 139.29,-697.98 139.29,-677.34 139.29,-677.34 139.29,-671.34 145.29,-665.34 151.29,-665.34 151.29,-665.34 402.96,-665.34 402.96,-665.34 408.96,-665.34 414.96,-671.34 414.96,-677.34 414.96,-677.34 414.96,-697.98 414.96,-697.98 414.96,-703.98 408.96,-709.98 402.96,-709.98"/>
<text xml:space="preserve" text-anchor="middle" x="277.12" y="-690.71" font-family="DejaVu Sans" font-size="11.00" fill="#172033">Hybrid precedence</text>
<text xml:space="preserve" text-anchor="middle" x="277.12" y="-677.21" font-family="DejaVu Sans" font-size="11.00" fill="#172033">Keep Deepin DLLs; prefer Bookworm i386 ABI</text>
</g>
<!-- gl_debug&#45;&gt;abi_fix -->
<g id="edge9" class="edge">
<title>gl_debug&#45;&gt;abi_fix</title>
<path fill="none" stroke="#6b7893" stroke-width="1.35" d="M277.12,-775.84C277.12,-775.84 277.12,-719.58 277.12,-719.58"/>
<polygon fill="#6b7893" stroke="#6b7893" stroke-width="1.35" points="279.65,-719.58 277.13,-712.38 274.61,-719.58 279.65,-719.58"/>
<text xml:space="preserve" text-anchor="middle" x="244.5" y="-750.41" font-family="DejaVu Sans" font-size="9.00" fill="#53617a">GLIBC collision</text>
</g>
<!-- gpu_test -->
<g id="node11" class="node">
<title>gpu_test</title>
<path fill="#ffffff" stroke="#cbd3e1" stroke-width="1.25" d="M378.52,-599.09C378.52,-599.09 175.73,-599.09 175.73,-599.09 169.73,-599.09 163.73,-593.09 163.73,-587.09 163.73,-587.09 163.73,-566.45 163.73,-566.45 163.73,-560.45 169.73,-554.45 175.73,-554.45 175.73,-554.45 378.52,-554.45 378.52,-554.45 384.52,-554.45 390.52,-560.45 390.52,-566.45 390.52,-566.45 390.52,-587.09 390.52,-587.09 390.52,-593.09 384.52,-599.09 378.52,-599.09"/>
<text xml:space="preserve" text-anchor="middle" x="277.12" y="-573.07" font-family="DejaVu Sans" font-size="11.00" fill="#172033">Can container Mesa drive this GPU?</text>
</g>
<!-- abi_fix&#45;&gt;gpu_test -->
<g id="edge10" class="edge">
<title>abi_fix&#45;&gt;gpu_test</title>
<path fill="none" stroke="#6b7893" stroke-width="1.35" d="M277.12,-664.95C277.12,-664.95 277.12,-608.69 277.12,-608.69"/>
<polygon fill="#6b7893" stroke="#6b7893" stroke-width="1.35" points="279.65,-608.69 277.13,-601.49 274.61,-608.69 279.65,-608.69"/>
</g>
<!-- native -->
<g id="node12" class="node">
<title>native</title>
<path fill="#e3f6e9" stroke="#72b985" stroke-width="1.25" d="M366.52,-488.2C366.52,-488.2 163.73,-488.2 163.73,-488.2 157.73,-488.2 151.73,-482.2 151.73,-476.2 151.73,-476.2 151.73,-455.56 151.73,-455.56 151.73,-449.56 157.73,-443.56 163.73,-443.56 163.73,-443.56 366.52,-443.56 366.52,-443.56 372.52,-443.56 378.52,-449.56 378.52,-455.56 378.52,-455.56 378.52,-476.2 378.52,-476.2 378.52,-482.2 372.52,-488.2 366.52,-488.2"/>
<text xml:space="preserve" text-anchor="middle" x="265.12" y="-462.18" font-family="DejaVu Sans" font-size="11.00" fill="#172033">Use native acceleration</text>
</g>
<!-- gpu_test&#45;&gt;native -->
<g id="edge11" class="edge">
<title>gpu_test&#45;&gt;native</title>
<path fill="none" stroke="#6b7893" stroke-width="1.35" d="M271.12,-554.06C271.12,-554.06 271.12,-497.8 271.12,-497.8"/>
<polygon fill="#6b7893" stroke="#6b7893" stroke-width="1.35" points="273.65,-497.8 271.13,-490.6 268.61,-497.8 273.65,-497.8"/>
<text xml:space="preserve" text-anchor="middle" x="263.62" y="-528.63" font-family="DejaVu Sans" font-size="9.00" fill="#53617a">yes</text>
</g>
<!-- llvmpipe -->
<g id="node13" class="node">
<title>llvmpipe</title>
<path fill="#ffe2da" stroke="#de806b" stroke-width="1.25" d="M620.52,-488.2C620.52,-488.2 417.73,-488.2 417.73,-488.2 411.73,-488.2 405.73,-482.2 405.73,-476.2 405.73,-476.2 405.73,-455.56 405.73,-455.56 405.73,-449.56 411.73,-443.56 417.73,-443.56 417.73,-443.56 620.52,-443.56 620.52,-443.56 626.52,-443.56 632.52,-449.56 632.52,-455.56 632.52,-455.56 632.52,-476.2 632.52,-476.2 632.52,-482.2 626.52,-488.2 620.52,-488.2"/>
<text xml:space="preserve" text-anchor="middle" x="519.12" y="-468.93" font-family="DejaVu Sans" font-size="11.00" fill="#172033">Per&#45;app llvmpipe fallback</text>
<text xml:space="preserve" text-anchor="middle" x="519.12" y="-455.43" font-family="DejaVu Sans" font-size="11.00" fill="#172033">Never global /etc/environment</text>
</g>
<!-- gpu_test&#45;&gt;llvmpipe -->
<g id="edge12" class="edge">
<title>gpu_test&#45;&gt;llvmpipe</title>
<path fill="none" stroke="#6b7893" stroke-width="1.35" d="M390.97,-577C402.65,-577 410.34,-577 410.34,-577 410.34,-577 410.34,-497.88 410.34,-497.88"/>
<polygon fill="#6b7893" stroke="#6b7893" stroke-width="1.35" points="412.86,-497.88 410.34,-490.68 407.82,-497.88 412.86,-497.88"/>
<text xml:space="preserve" text-anchor="middle" x="404.72" y="-549.82" font-family="DejaVu Sans" font-size="9.00" fill="#53617a">no</text>
</g>
<!-- launch -->
<g id="node14" class="node">
<title>launch</title>
<path fill="#ffffff" stroke="#cbd3e1" stroke-width="1.25" d="M493.52,-377.31C493.52,-377.31 290.73,-377.31 290.73,-377.31 284.73,-377.31 278.73,-371.31 278.73,-365.31 278.73,-365.31 278.73,-344.67 278.73,-344.67 278.73,-338.67 284.73,-332.67 290.73,-332.67 290.73,-332.67 493.52,-332.67 493.52,-332.67 499.52,-332.67 505.52,-338.67 505.52,-344.67 505.52,-344.67 505.52,-365.31 505.52,-365.31 505.52,-371.31 499.52,-377.31 493.52,-377.31"/>
<text xml:space="preserve" text-anchor="middle" x="392.12" y="-358.04" font-family="DejaVu Sans" font-size="11.00" fill="#172033">Launch target executable</text>
<text xml:space="preserve" text-anchor="middle" x="392.12" y="-344.54" font-family="DejaVu Sans" font-size="11.00" fill="#172033">Evernote.exe</text>
</g>
<!-- native&#45;&gt;launch -->
<g id="edge13" class="edge">
<title>native&#45;&gt;launch</title>
<path fill="none" stroke="#6b7893" stroke-width="1.35" d="M328.62,-443.17C328.62,-443.17 328.62,-386.91 328.62,-386.91"/>
<polygon fill="#6b7893" stroke="#6b7893" stroke-width="1.35" points="331.15,-386.91 328.63,-379.71 326.11,-386.91 331.15,-386.91"/>
</g>
<!-- llvmpipe&#45;&gt;launch -->
<g id="edge14" class="edge">
<title>llvmpipe&#45;&gt;launch</title>
<path fill="none" stroke="#6b7893" stroke-width="1.35" d="M455.62,-443.17C455.62,-443.17 455.62,-386.91 455.62,-386.91"/>
<polygon fill="#6b7893" stroke="#6b7893" stroke-width="1.35" points="458.15,-386.91 455.63,-379.71 453.11,-386.91 458.15,-386.91"/>
</g>
<!-- process -->
<g id="node15" class="node">
<title>process</title>
<path fill="#ffffff" stroke="#cbd3e1" stroke-width="1.25" d="M493.52,-266.42C493.52,-266.42 290.73,-266.42 290.73,-266.42 284.73,-266.42 278.73,-260.42 278.73,-254.42 278.73,-254.42 278.73,-233.78 278.73,-233.78 278.73,-227.78 284.73,-221.78 290.73,-221.78 290.73,-221.78 493.52,-221.78 493.52,-221.78 499.52,-221.78 505.52,-227.78 505.52,-233.78 505.52,-233.78 505.52,-254.42 505.52,-254.42 505.52,-260.42 499.52,-266.42 493.52,-266.42"/>
<text xml:space="preserve" text-anchor="middle" x="392.12" y="-247.15" font-family="DejaVu Sans" font-size="11.00" fill="#172033">Process stays alive</text>
<text xml:space="preserve" text-anchor="middle" x="392.12" y="-233.65" font-family="DejaVu Sans" font-size="11.00" fill="#172033">Wine services + application</text>
</g>
<!-- launch&#45;&gt;process -->
<g id="edge15" class="edge">
<title>launch&#45;&gt;process</title>
<path fill="none" stroke="#6b7893" stroke-width="1.35" d="M392.12,-332.28C392.12,-332.28 392.12,-276.02 392.12,-276.02"/>
<polygon fill="#6b7893" stroke="#6b7893" stroke-width="1.35" points="394.65,-276.02 392.13,-268.82 389.61,-276.02 394.65,-276.02"/>
</g>
<!-- behavior -->
<g id="node16" class="node">
<title>behavior</title>
<path fill="#ffffff" stroke="#cbd3e1" stroke-width="1.25" d="M493.58,-155.53C493.58,-155.53 290.67,-155.53 290.67,-155.53 284.67,-155.53 278.67,-149.53 278.67,-143.53 278.67,-143.53 278.67,-122.89 278.67,-122.89 278.67,-116.89 284.67,-110.89 290.67,-110.89 290.67,-110.89 493.58,-110.89 493.58,-110.89 499.58,-110.89 505.58,-116.89 505.58,-122.89 505.58,-122.89 505.58,-143.53 505.58,-143.53 505.58,-149.53 499.58,-155.53 493.58,-155.53"/>
<text xml:space="preserve" text-anchor="middle" x="392.12" y="-136.26" font-family="DejaVu Sans" font-size="11.00" fill="#172033">Validate window · fonts · login</text>
<text xml:space="preserve" text-anchor="middle" x="392.12" y="-122.76" font-family="DejaVu Sans" font-size="11.00" fill="#172033">network · sync · clipboard · relaunch</text>
</g>
<!-- process&#45;&gt;behavior -->
<g id="edge16" class="edge">
<title>process&#45;&gt;behavior</title>
<path fill="none" stroke="#6b7893" stroke-width="1.35" d="M392.12,-221.39C392.12,-221.39 392.12,-165.13 392.12,-165.13"/>
<polygon fill="#6b7893" stroke="#6b7893" stroke-width="1.35" points="394.65,-165.13 392.13,-157.93 389.61,-165.13 394.65,-165.13"/>
</g>
<!-- done -->
<g id="node17" class="node">
<title>done</title>
<path fill="#ddf5e5" stroke="#43a568" stroke-width="1.8" d="M493.96,-44.64C493.96,-44.64 290.29,-44.64 290.29,-44.64 284.29,-44.64 278.29,-38.64 278.29,-32.64 278.29,-32.64 278.29,-12 278.29,-12 278.29,-6 284.29,0 290.29,0 290.29,0 493.96,0 493.96,0 499.96,0 505.96,-6 505.96,-12 505.96,-12 505.96,-32.64 505.96,-32.64 505.96,-38.64 499.96,-44.64 493.96,-44.64"/>
<text xml:space="preserve" text-anchor="middle" x="392.12" y="-25.37" font-family="DejaVu Sans" font-size="11.00" fill="#176b37">COMPATIBLE AND USABLE</text>
<text xml:space="preserve" text-anchor="middle" x="392.12" y="-11.87" font-family="DejaVu Sans" font-size="11.00" fill="#176b37">Scoped, reversible, evidence&#45;backed</text>
</g>
<!-- behavior&#45;&gt;done -->
<g id="edge17" class="edge">
<title>behavior&#45;&gt;done</title>
<path fill="none" stroke="#6b7893" stroke-width="1.35" d="M392.12,-110.5C392.12,-110.5 392.12,-54.62 392.12,-54.62"/>
<polygon fill="#6b7893" stroke="#6b7893" stroke-width="1.35" points="394.65,-54.62 392.13,-47.42 389.61,-54.62 394.65,-54.62"/>
</g>
</g>
</svg>
